# xmcd CD database file
#
# Track frame offsets:
#	150
#	11745
#	27206
#	42320
#	54029
#	68093
#	80202
#	91529
#	112192
#	127168
#	134774
#	148600
#	161864
#	170673
#	179623
#	192355
#	205342
#
# Disc length: 2861 seconds
#
# Revision: 1
# Processed by: cddbd v1.5.2PL0 Copyright (c) Steve Scherf et al.
# Submitted via: CDex 1.51
#
DISCID=fe0b2b11
DTITLE=Stephen Barry and Andrew Cowan - Duo
DYEAR=2008
DGENRE=Blues
TTITLE0=Forty-Four
TTITLE1=Goin' Away Baby
TTITLE2=Waltz in Blue
TTITLE3=All Along the Watchtower
TTITLE4=Portrait in Blue
TTITLE5=Love in Vain
TTITLE6=Mender
TTITLE7=Fool's Paradise
TTITLE8=Killing Him
TTITLE9=What a Fool I Was
TTITLE10=Betty an Dupree
TTITLE11=Po' Boy
TTITLE12=Worried Blues
TTITLE13=See See Rider
TTITLE14=Buy Your Ticket
TTITLE15=Don't Forget to Smile
TTITLE16=Waltzing With Donna B.
EXTD=YEAR: 2008
EXTT0=
EXTT1=
EXTT2=
EXTT3=
EXTT4=
EXTT5=
EXTT6=
EXTT7=
EXTT8=
EXTT9=
EXTT10=
EXTT11=
EXTT12=
EXTT13=
EXTT14=
EXTT15=
EXTT16=
PLAYORDER=
